<svg viewBox="0 0 1584 396" xmlns="http://www.w3.org/2000/svg">
  <defs>
    <linearGradient id="bgGradient" x1="0%" y1="0%" x2="100%" y2="100%">
      <stop offset="0%" style="stop-color:#0A192F;stop-opacity:1" />
      <stop offset="100%" style="stop-color:#1E3A5F;stop-opacity:1" />
    </linearGradient>
    <pattern id="grid" width="40" height="40" patternUnits="userSpaceOnUse">
      <circle cx="2" cy="2" r="1" fill="#64FFDA" opacity="0.1"/>
    </pattern>
  </defs>

  <rect width="1584" height="396" fill="url(#bgGradient)"/>
  <rect width="1584" height="396" fill="url(#grid)"/>

  <g opacity="0.12">
    <rect x="1350" y="280" width="120" height="80" rx="4" fill="none" stroke="#64FFDA" stroke-width="1.5"/>
    <text x="1360" y="305" font-family="monospace" font-size="18" fill="#64FFDA">$_</text>

    <path d="M100 100 L120 120 L100 140" fill="none" stroke="#64FFDA" stroke-width="3" />
    <path d="M1520 200 L1500 220 L1520 240" fill="none" stroke="#64FFDA" stroke-width="3" />

    <path d="M1400 150 L1450 200 L1400 250" fill="none" stroke="#64FFDA" stroke-width="10" />
    <path d="M1500 150 L1450 200 L1500 250" fill="none" stroke="#64FFDA" stroke-width="10" />
    <rect x="1200" y="40" width="200" height="120" rx="5" fill="none" stroke="#64FFDA" stroke-width="2"/>
    <circle cx="1220" cy="55" r="4" fill="#64FFDA"/>
    <circle cx="1235" cy="55" r="4" fill="#64FFDA"/>
    <text x="50" y="350" font-family="monospace" font-size="120" fill="#64FFDA" opacity="0.5">{ }</text>
  </g>

  <rect x="0" y="0" width="1584" height="3" fill="#64FFDA" opacity="0.5"/>
  <rect x="0" y="393" width="1584" height="3" fill="#64FFDA" opacity="0.3"/>

  <circle cx="1450" cy="80" r="60" fill="none" stroke="#64FFDA" stroke-width="1" opacity="0.15"/>
  <circle cx="1450" cy="80" r="40" fill="none" stroke="#64FFDA" stroke-width="1" opacity="0.15"/>
  <rect x="100" y="300" width="80" height="80" fill="none" stroke="#64FFDA" stroke-width="1" opacity="0.1" transform="rotate(45 140 340)"/>

  <g transform="translate(80, 60)">
    <text x="0" y="0" font-family="Arial, sans-serif" font-size="48" font-weight="bold" fill="#FFFFFF">R</text>
    <text x="27" y="35" font-family="Arial, sans-serif" font-size="48" font-weight="bold" fill="#FFFFFF">R7</text>
  </g>

  <g transform="translate(280, 130)">
    <text x="0" y="0" font-family="'Segoe UI', Arial, sans-serif" font-size="56" font-weight="700" fill="#FFFFFF" letter-spacing="1">
      Rajoharitiana Raharison
    </text>

    <text x="0" y="45" font-family="'Segoe UI', Arial, sans-serif" font-size="32" font-weight="400" fill="#64FFDA">
      Front-end Developer
    </text>

    <g transform="translate(0, 75)">
      <rect width="18" height="18" rx="2" fill="#0077B5"/>
      <text x="4" y="14" font-family="Arial" font-size="12" font-weight="bold" fill="white">in</text>
      <text x="25" y="14" font-family="'Segoe UI', sans-serif" font-size="14" fill="#8892B0">Rajoharitiana Raharison</text>
    </g>

    <g transform="translate(230, 75)">
      <path d="M9 0C4.03 0 0 4.03 0 9c0 3.97 2.58 7.35 6.15 8.54.45.08.61-.2.61-.43v-1.51c-2.5.54-3.03-1.21-3.03-1.21-.41-1.04-1-1.32-1-1.32-.82-.56.06-.55.06-.55.9.06 1.38.93 1.38.93.81 1.38 2.11.98 2.63.75.08-.58.32-.98.57-1.21-2-.23-4.1-1-4.1-4.45 0-.98.35-1.78.93-2.41-.09-.23-.4-1.14.09-2.38 0 0 .75-.24 2.46.92.71-.2 1.48-.3 2.25-.3.77 0 1.54.1 2.25.3 1.71-1.16 2.46-.92 2.46-.92.49 1.24.18 2.15.09 2.38.58.63.93 1.43.93 2.41 0 3.46-2.1 4.22-4.11 4.44.32.28.61.82.61 1.66v2.46c0 .24.16.52.62.43A9.01 9.01 0 0018 9c0-4.97-4.03-9-9-9z" fill="#FFFFFF"/>
      <text x="25" y="14" font-family="'Segoe UI', sans-serif" font-size="14" fill="#8892B0">RaJharit77</text>
    </g>

    <text x="0" y="120" font-family="'Courier New', monospace" font-size="20" font-weight="500" fill="#8892B0" letter-spacing="2">
      &lt; Just Code It /&gt;
    </text>
  </g>

  <g transform="translate(1120, 250)">
    <text x="0" y="-30" font-family="'Segoe UI', Arial, sans-serif" font-size="14" font-weight="600" fill="#8892B0" letter-spacing="1">
      TECH STACK
    </text>

    <g transform="translate(0, 0)">
      <circle cx="30" cy="30" r="28" fill="#20232A" stroke="#61DAFB" stroke-width="2"/>
      <ellipse cx="30" cy="30" rx="20" ry="8" fill="none" stroke="#61DAFB" stroke-width="2"/>
      <ellipse cx="30" cy="30" rx="20" ry="8" fill="none" stroke="#61DAFB" stroke-width="2" transform="rotate(60 30 30)"/>
      <ellipse cx="30" cy="30" rx="20" ry="8" fill="none" stroke="#61DAFB" stroke-width="2" transform="rotate(120 30 30)"/>
      <circle cx="30" cy="30" r="4" fill="#61DAFB"/>
      <text x="30" y="75" font-family="'Segoe UI', Arial, sans-serif" font-size="11" fill="#8892B0" text-anchor="middle">React.js</text>
    </g>

    <g transform="translate(90, 0)">
      <circle cx="30" cy="30" r="27" fill="#000000" stroke="#FFFFFF" stroke-width="1.5"/>
      <g transform="translate(11, 11) scale(0.15)">
        <path d="M119.616813,0.0688905149 C119.066276,0.118932037 117.314565,0.294077364 115.738025,0.419181169 C79.3775171,3.69690087 45.3192571,23.3131775 23.7481916,53.4631946 C11.7364614,70.2271045 4.05395894,89.2428829 1.15112414,109.384595 C0.12512219,116.415429 0,118.492153 0,128.025062 C0,137.557972 0.12512219,139.634696 1.15112414,146.665529 C8.10791789,194.730411 42.3163245,235.11392 88.7116325,250.076335 C97.0197458,252.753556 105.778299,254.580072 115.738025,255.680985 C119.616813,256.106338 136.383187,256.106338 140.261975,255.680985 C157.453763,253.779407 172.017986,249.525878 186.382014,242.194795 C188.584164,241.068861 189.00958,240.768612 188.709286,240.518404 C188.509091,240.36828 179.124927,227.782837 167.86393,212.570214 L147.393939,184.922273 L121.743891,146.965779 C107.630108,126.098464 96.0187683,109.034305 95.9186706,109.034305 C95.8185728,109.009284 95.7184751,125.873277 95.6684262,146.465363 C95.5933529,182.52028 95.5683284,183.971484 95.1178886,184.82219 C94.4672532,186.048207 93.9667644,186.548623 92.915738,187.099079 C92.114956,187.499411 91.4142717,187.574474 87.6355816,187.574474 L83.3063539,187.574474 L82.1552297,186.848872 C81.4044966,186.373477 80.8539589,185.747958 80.4785924,185.022356 L79.9530792,183.896422 L80.0031281,133.729796 L80.0782014,83.5381493 L80.8539589,82.5623397 C81.25435,82.0369037 82.1051808,81.3613431 82.7057674,81.0360732 C83.7317693,80.535658 84.1321603,80.4856165 88.4613881,80.4856165 C93.5663734,80.4856165 94.4172043,80.6857826 95.7434995,82.1369867 C96.1188661,82.5373189 110.007429,103.454675 126.623656,128.650581 C143.239883,153.846488 165.962072,188.250034 177.122972,205.139048 L197.392766,235.839522 L198.418768,235.163961 C207.502639,229.259062 217.112023,220.852086 224.719453,212.09482 C240.910264,193.504394 251.345455,170.835585 254.848876,146.665529 C255.874878,139.634696 256,137.557972 256,128.025062 C256,118.492153 255.874878,116.415429 254.848876,109.384595 C247.892082,61.3197135 213.683675,20.9362052 167.288368,5.97379012 C159.105376,3.32158945 150.396872,1.49507389 140.637341,0.394160408 C138.234995,0.143952798 121.693842,-0.131275573 119.616813,0.0688905149 L119.616813,0.0688905149 Z M172.017986,77.4831252 C173.219159,78.0836234 174.195112,79.2345784 174.545455,80.435575 C174.74565,81.0861148 174.795699,94.9976579 174.74565,126.348671 L174.670577,171.336 L166.73783,159.17591 L158.780059,147.01582 L158.780059,114.313685 C158.780059,93.1711423 158.880156,81.2862808 159.030303,80.7108033 C159.430694,79.3096407 160.306549,78.2087272 161.507722,77.5581875 C162.533724,77.0327515 162.909091,76.98271 166.837928,76.98271 C170.541544,76.98271 171.19218,77.0327515 172.017986,77.4831252 Z" fill="#FFFFFF"/>
      </g>
      <text x="30" y="75" font-family="'Segoe UI', Arial, sans-serif" font-size="11" fill="#8892B0" text-anchor="middle">Next.js</text>
    </g>

    <g transform="translate(180, 0)">
      <rect x="2" y="2" width="56" height="56" rx="8" fill="#3178C6"/>
      <g transform="translate(12, 12) scale(0.085)">
        <path fill="#ffffff" d="m233 284h64v-41H118v41h64v183h51zm84 173c8.1 4.2 18 7.3 29 9.4s23 3.1 35 3.1c12 0 23-1.1 34-3.4c11-2.3 20-6.1 28-11c8.1-5.3 15-12 19-21s7.1-19 7.1-32c0-9.1-1.4-17-4.1-24s-6.6-13-12-18c-5.1-5.3-11-10-18-14s-15-8.2-24-12c-6.6-2.7-12-5.3-18-7.9c-5.2-2.6-9.7-5.2-13-7.8c-3.7-2.7-6.5-5.5-8.5-8.4c-2-3-3-6.3-3-10c0-3.4.89-6.5 2.7-9.3s4.3-5.1 7.5-7.1c3.2-2 7.2-3.5 12-4.6c4.7-1.1 9.9-1.6 16-1.6c4.2 0 8.6.31 13 .94c4.6.63 9.3 1.6 14 2.9c4.7 1.3 9.3 2.9 14 4.9c4.4 2 8.5 4.3 12 6.9v-47c-7.6-2.9-16-5.1-25-6.5s-19-2.1-31-2.1c-12 0-23 1.3-34 3.8s-20 6.5-28 12c-8.1 5.4-14 12-19 21c-4.7 8.4-7 18-7 30c0 15 4.3 28 13 38c8.6 11 22 19 39 27c6.9 2.8 13 5.6 19 8.3s11 5.5 15 8.4c4.3 2.9 7.7 6.1 10 9.5c2.5 3.4 3.8 7.4 3.8 12c0 3.2-.78 6.2-2.3 9s-3.9 5.2-7.1 7.2s-7.1 3.6-12 4.8c-4.7 1.1-10 1.7-17 1.7c-11 0-22-1.9-32-5.7c-11-3.8-21-9.5-28.1-15.44z"/>
      </g>
      <text x="30" y="75" font-family="'Segoe UI', Arial, sans-serif" font-size="11" fill="#8892B0" text-anchor="middle">TypeScript</text>
    </g>

    <g transform="translate(270, 0)">
      <rect x="2" y="2" width="56" height="56" rx="8" fill="#F7DF1E"/>
      <g transform="translate(12, 12) scale(0.085)">
        <path d="M324 370c10 17 24 29 47 29c20 0 33-10 33 -24c0-16 -13 -22 -35 -32l-12-5c-35-15 -58 -33 -58 -72c0-36 27 -64 70 -64c31 0 53 11 68 39l-37 24c-8-15 -17 -21 -31 -21c-14 0-23 9 -23 21c0 14 9 20 30 29l12 5c41 18 64 35 64 76c0 43-34 67 -80 67c-45 0-74 -21 -88 -49zm-170 4c8 13 14 25 31 25c16 0 26-6 26 -30V203h48v164c0 50-29 72 -72 72c-39 0-61 -20 -72 -44z" fill="#000000"/>
      </g>
      <text x="30" y="75" font-family="'Segoe UI', Arial, sans-serif" font-size="11" fill="#8892B0" text-anchor="middle">JavaScript</text>
    </g>
  </g>
  <g opacity="0.15">
    <line x1="250" y1="340" x2="450" y2="340" stroke="#64FFDA" stroke-width="1.5"/>
    <line x1="250" y1="355" x2="380" y2="355" stroke="#64FFDA" stroke-width="1.5"/>
    <line x1="250" y1="370" x2="420" y2="370" stroke="#64FFDA" stroke-width="1.5"/>
  </g>
</svg>
